# xmcd
#
# Track frame offsets: 
#        150
#        11893
#        20727
#        33815
#        47455
#        61032
#        74792
#        90897
#        101964
#        120142
#        132204
#        149412
#        164587
#        177293
#        189756
#
# Disc length: 2691 seconds
#
# Revision: 0
# Processed by: cddbd v1.5.2PL0 Copyright (c) Steve Scherf et al.
# Submitted via: ExactAudioCopyFreeDBPlugin 1.0
#
DISCID=c40a810f
DTITLE=Dusty Springfield - The best of Dusty Springfield
DYEAR=2008
DGENRE=Pop
TTITLE0=I only want to be with you
TTITLE1=Stay Awhile
TTITLE2=Wishin' and Hopin'
TTITLE3=Am I The Same Girl 
TTITLE4=Losing You
TTITLE5=All Cried Out 
TTITLE6=Look Of Love
TTITLE7=Son of a Preacher Man
TTITLE8=Tupelo Honey
TTITLE9=Will You Love Me Tomorrow?
TTITLE10=Windmills Of Your Mind
TTITLE11=All I See Is You
TTITLE12=You Don't Have To Say You Love Me
TTITLE13=Can I Get a Witness
TTITLE14=Spooky
EXTD=
EXTT0=
EXTT1=
EXTT2=
EXTT3=
EXTT4=
EXTT5=
EXTT6=
EXTT7=
EXTT8=
EXTT9=
EXTT10=
EXTT11=
EXTT12=
EXTT13=
EXTT14=
PLAYORDER=
